<svg width="49" height="49" viewBox="0 0 49 49" fill="none" xmlns="http://www.w3.org/2000/svg">
<path d="M6.08887 21.7063L21.7058 6.08789L22.7743 7.15642L7.1574 22.7764L6.08887 21.7063ZM25.8968 41.5173L41.5167 25.8973L42.5853 26.9659L26.9684 42.5828L25.8968 41.5173ZM6.08887 26.9644L7.1574 25.8958L22.7743 41.5142L21.7058 42.5828L6.08887 26.9644ZM25.8968 7.15642L26.9668 6.08789L42.5838 21.7033L41.5152 22.7718L25.8968 7.15642Z" fill="url(#paint0_linear_395_36605)"/>
<path d="M24.1818 2.13707L26.7254 4.68069L24.1818 7.22281L21.6382 4.67918L24.1818 2.13707ZM24.1818 0L19.5011 4.68069L24.1818 9.36139L28.8625 4.68069L24.1818 0ZM24.1818 41.1408L26.7254 43.6844L24.1818 46.2266L21.6382 43.6829L24.1818 41.1408ZM24.1818 39.0022L19.5011 43.6829L24.1818 48.3636L28.8625 43.6829L24.1818 39.0022ZM4.68069 21.6382L7.22281 24.1818L4.67918 26.7254L2.13707 24.1818L4.68069 21.6382ZM4.68069 19.5011L0 24.1818L4.68069 28.8625L9.36139 24.1818L4.68069 19.5011ZM43.6829 21.6382L46.2266 24.1818L43.6829 26.7254L41.1408 24.1818L43.6829 21.6382ZM43.6829 19.5011L39.0022 24.1818L43.6829 28.8625L48.3636 24.1818L43.6829 19.5011Z" fill="url(#paint1_linear_395_36605)"/>
<defs>
<linearGradient id="paint0_linear_395_36605" x1="2.94555" y1="8.09094" x2="3310.64" y2="1550.5" gradientUnits="userSpaceOnUse">
<stop stop-color="#51A4FB"/>
<stop offset="1" stop-color="#51A4FB"/>
</linearGradient>
<linearGradient id="paint1_linear_395_36605" x1="0" y1="0" x2="4383.23" y2="2043.94" gradientUnits="userSpaceOnUse">
<stop stop-color="#51A4FB"/>
<stop offset="1" stop-color="#51A4FB"/>
</linearGradient>
</defs>
</svg>
