
<svg id="Layer_1" data-name="Layer 1" xmlns="http://www.w3.org/2000/svg" viewBox="0 0 109 127"><defs><style>.cls-1{fill:#1c75bc;}.cls-2{fill:#27aae1;}.cls-3{fill:none;stroke:#27aae1;stroke-miterlimit:10;stroke-width:1.64px;}</style></defs><path class="cls-1" d="M89.3,51.93c0,5.43-.26,10.88.06,16.29.45,7.62-2.28,14-7,19.62-6.92,8.27-15.53,14.45-24.85,19.71a2.62,2.62,0,0,1-2.19,0c-9.67-5.47-18.6-11.87-25.59-20.65a27.49,27.49,0,0,1-6.34-18.16c.22-11.93,0-23.88,0-35.82,0-.62,0-1.24,0-1.86.07-2.3.42-2.65,2.69-2.68A63.33,63.33,0,0,0,43,26.24a30.56,30.56,0,0,0,11.8-6.12,2,2,0,0,1,3-.1c5.61,4.88,12.4,6.85,19.56,7.76,3.14.4,6.32.45,9.48.6,2.08.09,2.49.38,2.5,2.5,0,7,0,14,0,21.05ZM26.68,31.78v2.06c0,11.76.21,23.53,0,35.29a23.19,23.19,0,0,0,4.91,14.81c6.44,8.51,14.93,14.56,24,20a2.11,2.11,0,0,0,1.81-.13c2.93-1.82,5.87-3.63,8.67-5.64,6-4.31,11.59-9.06,15.8-15.22,2.3-3.36,4-6.94,4.07-11.14q.11-18.92.21-37.84c0-2.27,0-2.24-2.3-2.31-9.59-.31-18.76-2-26.77-7.79a1.71,1.71,0,0,0-1.56.12c-6.26,4.5-13.38,6.46-20.89,7.28C32.06,31.5,29.47,31.59,26.68,31.78Z"/><circle class="cls-2" cx="56.42" cy="66.84" r="2.91"/><circle class="cls-2" cx="56.42" cy="90.22" r="2.91"/><circle class="cls-2" cx="78.89" cy="52.03" r="2.91"/><circle class="cls-2" cx="33.89" cy="52.03" r="2.91"/><circle class="cls-2" cx="56.42" cy="36.73" r="2.91"/><line class="cls-3" x1="56.42" y1="36.73" x2="56.42" y2="91.22"/><ellipse class="cls-3" cx="56.39" cy="52.03" rx="22.5" ry="15.3"/></svg>
