<svg width="30" height="30" viewBox="0 0 30 30" fill="none" xmlns="http://www.w3.org/2000/svg">
<g clip-path="url(#clip0_199_31609)">
<path d="M15 30C6.72656 30 0 23.2734 0 15C0 6.72656 6.72656 0 15 0C23.2734 0 30 6.72656 30 15C30 23.2734 23.2734 30 15 30Z" fill="black"/>
<path d="M15.2812 20.4375V25.7578L21.8672 16.5L15.2812 20.4375ZM21.6328 14.7891L15.2812 4.24219V11.9062L21.6328 14.7891ZM15.2812 12.4922V19.0547L21.5859 15.375L15.2812 12.4922ZM8.39062 14.7891L14.7187 4.24219V11.9062L8.39062 14.7891ZM14.7187 12.4922V19.0547L8.41406 15.375L14.7187 12.4922ZM14.7187 20.4375V25.7578L8.13281 16.5L14.7187 20.4375Z" fill="white"/>
</g>
<defs>
<clipPath id="clip0_199_31609">
<rect width="30" height="30" fill="white"/>
</clipPath>
</defs>
</svg>
