<svg width="15" height="30" viewBox="0 0 15 30" fill="none" xmlns="http://www.w3.org/2000/svg">
<g clip-path="url(#clip0_113_32498)">
<mask id="path-1-inside-1_113_32498" fill="white">
<path d="M0.5 4C0.5 1.79086 2.29086 0 4.5 0H10.5C12.7091 0 14.5 1.79086 14.5 4V26C14.5 28.2091 12.7091 30 10.5 30H4.5C2.29086 30 0.5 28.2091 0.5 26V4Z"/>
</mask>
<path d="M0.5 4C0.5 1.79086 2.29086 0 4.5 0H10.5C12.7091 0 14.5 1.79086 14.5 4V26C14.5 28.2091 12.7091 30 10.5 30H4.5C2.29086 30 0.5 28.2091 0.5 26V4Z" fill="white"/>
<mask id="path-3-inside-2_113_32498" fill="white">
<path d="M0.5 30L0.5 9H14.5L14.5 30H0.5Z"/>
</mask>
<path d="M0.5 30L0.5 9H14.5L14.5 30H0.5Z" fill="#FF5449"/>
<path d="M0.5 10H14.5V8H0.5L0.5 10Z" fill="#837377" mask="url(#path-3-inside-2_113_32498)"/>
</g>
<path d="M0.5 4C0.5 1.23858 2.73858 -1 5.5 -1H9.5C12.2614 -1 14.5 1.23858 14.5 4C14.5 2.34315 12.7091 1 10.5 1H4.5C2.29086 1 0.5 2.34315 0.5 4ZM14.5 30H0.5H14.5ZM0.5 30V0V30ZM14.5 0V30V0Z" fill="#CFC4C5" mask="url(#path-1-inside-1_113_32498)"/>
<defs>
<clipPath id="clip0_113_32498">
<path d="M0.5 4C0.5 1.79086 2.29086 0 4.5 0H10.5C12.7091 0 14.5 1.79086 14.5 4V26C14.5 28.2091 12.7091 30 10.5 30H4.5C2.29086 30 0.5 28.2091 0.5 26V4Z" fill="white"/>
</clipPath>
</defs>
</svg>
