
<svg id="Layer_1" data-name="Layer 1" xmlns="http://www.w3.org/2000/svg" width="152" height="40" viewBox="0 0 152 50"><defs><style>.cls-1{fill:#1c75bc;}.cls-2,.cls-4{fill:#27aae1;}.cls-3{fill:none;stroke:#27aae1;stroke-miterlimit:10;stroke-width:0.75px;}.cls-4{font-size:24.19px;font-family:Alberta;}</style></defs><path class="cls-1" d="M32.31,17c0,2.46-.12,4.94,0,7.4a12.35,12.35,0,0,1-3.19,8.91,40,40,0,0,1-11.29,9,1.24,1.24,0,0,1-1,0A38.81,38.81,0,0,1,5.24,32.9a12.44,12.44,0,0,1-2.88-8.25c.1-5.42,0-10.85,0-16.27,0-.29,0-.57,0-.85,0-1,.19-1.2,1.22-1.22a29,29,0,0,0,7.7-1,14,14,0,0,0,5.36-2.78A.89.89,0,0,1,18,2.51,16.15,16.15,0,0,0,26.89,6c1.42.18,2.87.2,4.31.27.94,0,1.13.17,1.13,1.13,0,3.19,0,6.38,0,9.57ZM3.86,7.85v.94c0,5.34.09,10.69,0,16a10.52,10.52,0,0,0,2.23,6.73C9,35.41,12.89,38.16,17,40.61a1,1,0,0,0,.82-.06c1.33-.82,2.66-1.65,3.93-2.56a28.46,28.46,0,0,0,7.18-6.92A8.92,8.92,0,0,0,30.78,26q0-8.6.1-17.19c0-1,0-1-1.05-1.06-4.35-.14-8.52-.92-12.16-3.53a.78.78,0,0,0-.71,0A19.41,19.41,0,0,1,7.47,7.6C6.3,7.73,5.13,7.77,3.86,7.85Z"/><circle class="cls-2" cx="17.37" cy="23.78" r="1.32"/><circle class="cls-2" cx="17.37" cy="34.4" r="1.32"/><circle class="cls-2" cx="27.58" cy="17.05" r="1.32"/><circle class="cls-2" cx="7.13" cy="17.05" r="1.32"/><circle class="cls-2" cx="17.37" cy="10.1" r="1.32"/><line class="cls-3" x1="17.37" y1="10.1" x2="17.37" y2="34.85"/><ellipse class="cls-3" cx="17.36" cy="17.05" rx="10.22" ry="6.95"/><text class="cls-4" transform="translate(37.43 30.97) scale(1.04 1)">Prosure</text></svg>