<svg width="24" height="24" viewBox="0 0 24 24" fill="none" xmlns="http://www.w3.org/2000/svg">
<path d="M3 10C3.6 10 4 9.6 4 9V6C4 4.9 4.9 4 6 4H9C9.6 4 10 3.6 10 3C10 2.4 9.6 2 9 2H6C3.8 2 2 3.8 2 6V9C2 9.6 2.4 10 3 10ZM18 2H15C14.4 2 14 2.4 14 3C14 3.6 14.4 4 15 4H18C19.1 4 20 4.9 20 6V9C20 9.6 20.4 10 21 10C21.6 10 22 9.6 22 9V6C22 3.8 20.2 2 18 2ZM21 14C20.4 14 20 14.4 20 15V18C20 19.1 19.1 20 18 20H15C14.4 20 14 20.4 14 21C14 21.6 14.4 22 15 22H18C20.2 22 22 20.2 22 18V15C22 14.4 21.6 14 21 14ZM6 22H9C9.6 22 10 21.6 10 21C10 20.4 9.6 20 9 20H6C4.9 20 4 19.1 4 18V15C4 14.4 3.6 14 3 14C2.4 14 2 14.4 2 15V18C2 20.2 3.8 22 6 22Z" fill="#514346"/>
<path d="M11 6C11 5.4 10.6 5 10 5H6C5.4 5 5 5.4 5 6V10C5 10.6 5.4 11 6 11H10C10.6 11 11 10.6 11 10V6ZM9 9H7V7H9V9ZM18 19C18.6 19 19 18.6 19 18V14C19 13.4 18.6 13 18 13H14C13.4 13 13 13.4 13 14V18C13 18.6 13.4 19 14 19H18ZM15 15H17V17H15V15ZM14 5C13.4 5 13 5.4 13 6V9C13 9.6 13.4 10 14 10H17C17 10.6 17.4 11 18 11C18.6 11 19 10.6 19 10V9C19 8.4 18.6 8 18 8H15V6C15 5.4 14.6 5 14 5Z" fill="#514346"/>
<path d="M18 7C18.6 7 19 6.6 19 6C19 5.4 18.6 5 18 5H17C16.4 5 16 5.4 16 6C16 6.6 16.4 7 17 7H18ZM7 19H9C9.6 19 10 18.6 10 18C10 17.4 9.6 17 9 17H8V14C8 13.4 7.6 13 7 13H6C5.4 13 5 13.4 5 14C5 14.6 5.4 15 6 15V18C6 18.6 6.4 19 7 19ZM10 13C9.4 13 9 13.4 9 14V15C9 15.6 9.4 16 10 16C10.6 16 11 15.6 11 15V14C11 13.4 10.6 13 10 13Z" fill="#514346"/>
</svg>
