<svg width="50" height="50" viewBox="0 0 50 50" fill="none" xmlns="http://www.w3.org/2000/svg">
<rect width="50" height="50" rx="25" fill="#FFDAD6"/>
<path d="M38.789 43.4297C39.5893 43.0857 40.3127 42.585 40.9165 41.957C41.5203 41.3291 41.9923 40.5866 42.3046 39.7734C43.2773 37.0703 42.8749 34.0586 41.1093 32.5352C39.3437 31.0117 35.121 28.7695 35.121 28.7695C35.121 28.7695 34.0624 30.7969 35.9023 33.6367C37.6601 36.3711 38.6132 37.7891 39.2031 39.3203C39.9609 41.2891 38.789 43.4297 38.789 43.4297Z" fill="black"/>
<path d="M43.3203 34.0547C43.3203 34.0547 43.7383 31.1523 39.168 29.3672C35.7031 28.0078 32.8125 26.8516 31.4062 25.1484C30.9635 24.6267 30.6403 24.0143 30.4594 23.3543C30.2786 22.6943 30.2444 22.0027 30.3594 21.3281C30.3594 21.3281 31.4766 22.6758 35.9102 23.1406C39.9883 23.5703 42.5508 25.0273 43.6211 27.3711C44.1301 28.4225 44.3691 29.5841 44.3166 30.751C44.2641 31.9179 43.9217 33.0533 43.3203 34.0547ZM33.082 27.8086C33.082 27.8086 34.0391 30.7695 32.3242 32.5234C30.8281 34.0508 28.6133 34.0547 26.8555 34.3945C25.6434 34.6295 24.4881 35.0964 23.4531 35.7695C25.1135 35.3394 26.8168 35.097 28.5312 35.0469C30.9297 35.0469 32.9648 34.0664 33.7109 32.375C34.9727 29.543 33.082 27.8086 33.082 27.8086ZM24.5703 40.0039C25.9648 39.4062 27.418 40.0859 28.3359 41.3164C29.2539 42.5469 29.6328 45.1367 31.6172 46.3047C33.6016 47.4727 35.7227 45.6133 35.7227 45.6133C35.7227 45.6133 33.7383 46.4531 32.543 45.8711C31.2578 45.2461 31.0625 44.1523 30.8359 42.2695C30.4453 39.1953 28.832 37.9727 27.4141 37.457C25.4087 36.8059 23.2286 36.9614 21.3359 37.8906C19.9884 38.5669 18.7268 39.4023 17.5781 40.3789C17.5781 40.3789 19.9219 40.7695 20.8594 41.3281C21.7969 41.8867 22.9922 43.7852 24.1797 44.1562C25.2695 44.5 26.3984 44.3281 27.0078 43.4453C27.6172 42.5625 27.3516 41.0156 26.3594 40.6836C25.1445 40.2734 24.2773 40.8516 24.3281 41.6016C24.3182 41.8025 24.3861 41.9995 24.5179 42.1516C24.6496 42.3037 24.8349 42.3991 25.0352 42.418C25.0352 42.418 24.2539 42.0273 24.582 41.3633C24.9727 40.6328 25.8711 40.7383 26.3594 41.082C26.957 41.5039 27.0469 42.957 26.0273 43.3711C25.0078 43.7852 23.7188 43.1094 23.5234 42.3008C23.3281 41.4922 23.4023 40.5078 24.5703 40.0039ZM21.5586 19.6758L4.96875 1.28516C4.96875 1.28516 19.0586 18.6602 19.5625 19.2539C20.0664 19.8477 20.3437 20.3711 19.9062 20.7734C19.5416 21.0745 19.101 21.2691 18.6328 21.3359C18.3068 21.4093 17.9664 21.3846 17.6543 21.2651C17.3423 21.1455 17.0725 20.9364 16.8789 20.6641C16.168 19.8086 10.9766 11.5938 10.9766 11.5938C10.9766 11.5938 15.625 20.0078 15.8633 20.5039C16.1016 21 16.2539 21.4375 16.0195 21.75C15.6357 22.1527 15.3109 22.6077 15.0547 23.1016C14.7969 23.7344 14.5859 25.5859 14.3711 26.3867C13.7937 28.1052 12.8622 29.6835 11.6367 31.0195C10.5195 32.1914 9.65625 33.7148 9.99609 35.8672C10.3203 37.9258 11.6445 39.5586 11.8672 39.9102C12.0956 40.2245 12.231 40.5967 12.2578 40.9844C12.2578 40.9844 15.5781 40.5938 17.4727 38.8555C19.1758 37.293 18.2539 35.543 17.7539 35.1016C17.3984 34.7852 15.1211 33.2578 14.8945 32.4531C14.668 31.6484 14.3008 31.082 15.3867 28.9062C16.4727 26.7305 16.1953 26.5 16.3398 25.75C16.4844 25 16.4531 23.4531 17.3164 23.1406C18.1797 22.8281 19.2695 22.9727 20.3086 22.3594C21.8242 21.4375 21.5586 19.6758 21.5586 19.6758ZM12.1836 36.0352C12.1204 36.0358 12.0577 36.0234 11.9994 35.9988C11.9412 35.9742 11.8886 35.9379 11.845 35.8921C11.8014 35.8463 11.7677 35.792 11.746 35.7326C11.7243 35.6732 11.715 35.61 11.7187 35.5469C11.7187 35.2852 11.9922 35.0977 11.9453 34.9336C11.8984 34.7695 11.6602 34.7617 11.6094 34.543C11.582 34.4258 11.6836 34.2031 12.1133 34.1875C12.3595 34.2016 12.5909 34.3102 12.759 34.4907C12.9271 34.6712 13.019 34.9096 13.0156 35.1562C13.0087 35.3799 12.9196 35.5931 12.7654 35.7552C12.6112 35.9174 12.4027 36.017 12.1797 36.0352H12.1836ZM22.9453 23.1758C22.6621 23.1933 22.3857 23.2694 22.1335 23.3993C21.8812 23.5292 21.6586 23.7099 21.4799 23.9302C21.3011 24.1505 21.1699 24.4055 21.0947 24.6791C21.0195 24.9526 21.0019 25.2388 21.043 25.5195C21.1719 26.5117 22.4766 26.4375 23.2852 26.1875C24.0938 25.9375 24.957 25.7969 24.8828 24.7852C24.8086 23.7734 23.5977 23.1406 22.9453 23.1758ZM22.9727 24.7812C22.4648 24.7812 22.0547 24.5 22.0547 24.1523C22.0547 23.8047 22.4453 23.5234 22.9727 23.5234C23.5 23.5234 23.8906 23.8047 23.8906 24.1523C23.8906 24.5 23.4805 24.7812 22.9727 24.7812ZM19.832 12.5352C19.832 12.5352 21.6562 12.707 22.5391 14.0977C23.4219 15.4883 23.3203 17.3516 23.8008 18.1758C24.0356 18.6268 24.2964 19.0637 24.582 19.4844C24.7188 19.6562 24.8242 19.9141 24.4961 19.9727C23.6914 20.1211 21.8789 19.3867 20.8867 17.4258C19.4023 14.5078 19.832 12.5352 19.832 12.5352ZM38.4219 12.1914C38.4219 12.1914 37.9062 13.2461 38.3008 15.1016C38.4144 15.6168 38.6878 16.083 39.082 16.4336C39.8307 17.1703 40.5326 17.953 41.1836 18.7773L39.3477 17.2891C38.957 16.9766 38.7227 16.9883 38.6992 17.3203C38.6758 17.6523 38.5352 19.1016 38.4844 19.418C38.3665 19.8287 38.2136 20.2286 38.0273 20.6133C38.0273 20.6133 38.2188 19.7109 38.2383 19.4648C38.2812 18.8633 38.2734 17.0273 37.8164 16.4453C37.0352 15.4531 34.6914 14.5625 34.6914 14.5625C35.6028 14.6972 36.4905 14.9603 37.3281 15.3437C37.6797 15.5078 37.7578 15.3867 37.7578 15.1406C37.7839 14.4859 37.8517 13.8336 37.9609 13.1875C38.0336 12.8237 38.1916 12.4823 38.4219 12.1914Z" fill="black"/>
<path d="M39.3242 18.9023C39.0195 20.6289 38.4297 21.2461 38.2383 21.3945C38.1159 21.5037 37.9593 21.5669 37.7954 21.5733C37.6315 21.5797 37.4704 21.5289 37.3398 21.4297C37.2196 21.3204 37.1401 21.1734 37.1145 21.013C37.0889 20.8525 37.1188 20.6881 37.1992 20.5469C37.3676 20.2407 37.4862 19.9098 37.5508 19.5664C37.6008 18.781 37.543 17.9924 37.3789 17.2226C36.7326 16.7842 36.0411 16.4162 35.3164 16.125C30.9375 14.3359 27.5547 15.4531 27.5547 15.4531C27.5547 15.4531 25.7461 13.2734 23.9727 12.3281C22.7249 11.7143 21.336 11.4446 19.9492 11.5469C19.9492 11.5469 22.4492 11.9375 23.8555 13.0703C26.3789 15.1289 28.9922 19.418 30.8359 20.418C34.6133 22.4687 37.9141 21.2461 39.9414 22.2617C41.4727 23.043 41.8945 23.9844 41.8945 23.9844C41.5099 22.0902 40.622 20.3347 39.3242 18.9023Z" fill="black"/>
</svg>
