<svg width="34" height="34" viewBox="0 0 34 34" fill="none" xmlns="http://www.w3.org/2000/svg">
<path d="M22.1982 19.6244C22.2301 17.4409 19.9802 15.9056 17.0769 15.6028C15.3716 15.4302 14.4446 14.9441 14.4446 13.8178C14.4446 12.742 15.539 11.9425 16.7582 12.0089C18.9735 12.1337 19.2949 13.5044 19.2949 14.3411C19.2949 14.3411 21.7068 14.3677 21.7068 14.3411C21.7068 12.3038 20.5327 10.5108 18.1341 9.98219V7.57031H15.7435V9.89719C13.2652 10.2903 11.8919 12.2878 11.868 13.9878C11.8335 16.2377 13.7141 17.4888 16.8352 17.9403C18.7743 18.2059 19.6376 18.947 19.619 19.9298C19.603 20.9923 18.9097 22.0097 16.9122 22.0097C15.0157 22.0097 14.2374 20.8383 14.2374 19.6031H11.6343C11.6343 21.8184 12.819 23.4441 15.7302 23.8213V26.1428H18.1208V23.8452C21.4996 23.4175 22.1769 20.8781 22.1982 19.6244Z" fill="black"/>
<path d="M5.42148 17C5.42154 14.5745 6.18332 12.2102 7.59929 10.2409C9.01526 8.27162 11.0139 6.79671 13.3132 6.02437V3.47703C10.3467 4.2862 7.72864 6.04835 5.86229 8.49199C3.99593 10.9356 2.98486 13.9252 2.98486 17C2.98486 20.0748 3.99593 23.0644 5.86229 25.508C7.72864 27.9516 10.3467 29.7138 13.3132 30.523V27.9756C11.0139 27.2033 9.01526 25.7284 7.59929 23.7591C6.18332 21.7898 5.42154 19.4255 5.42148 17ZM20.5515 3.43719V5.97656C22.8828 6.72938 24.9155 8.20195 26.3573 10.1826C27.7991 12.1633 28.5758 14.5501 28.5758 17C28.5758 19.4499 27.7991 21.8367 26.3573 23.8174C24.9155 25.798 22.8828 27.2706 20.5515 28.0234V30.5628C23.5489 29.776 26.2013 28.0183 28.0941 25.5645C29.9868 23.1107 31.0135 20.099 31.0135 17C31.0135 13.901 29.9868 10.8893 28.0941 8.4355C26.2013 5.9817 23.5489 4.22404 20.5515 3.43719Z" fill="black"/>
</svg>
