
<svg id="Layer_1" data-name="Layer 1" xmlns="http://www.w3.org/2000/svg" width="582" height="582" viewBox="0 0 582 582"><defs><style>.cls-1{fill:#1c75bc;}.cls-2{fill:#27aae1;}.cls-3{fill:none;stroke:#27aae1;stroke-miterlimit:10;stroke-width:0.75px;}</style></defs><path class="cls-1" d="M32.31,16.6c0,2.47-.12,4.94,0,7.4a12.35,12.35,0,0,1-3.19,8.91,40,40,0,0,1-11.29,9,1.24,1.24,0,0,1-1,0A38.66,38.66,0,0,1,5.24,32.49a12.42,12.42,0,0,1-2.88-8.25c.1-5.42,0-10.85,0-16.27,0-.28,0-.57,0-.85,0-1,.19-1.2,1.22-1.22a28.19,28.19,0,0,0,7.7-1,14,14,0,0,0,5.36-2.78A.9.9,0,0,1,18,2.1a16.08,16.08,0,0,0,8.89,3.53c1.42.18,2.87.2,4.31.27.94,0,1.13.18,1.13,1.14,0,3.18,0,6.37,0,9.56ZM3.86,7.45v.93c0,5.35.09,10.69,0,16a10.52,10.52,0,0,0,2.23,6.73C9,35,12.89,37.75,17,40.2a1,1,0,0,0,.82-.05c1.33-.83,2.66-1.66,3.93-2.57a28.25,28.25,0,0,0,7.18-6.91,9,9,0,0,0,1.85-5.06q0-8.59.1-17.19c0-1,0-1-1.05-1-4.35-.14-8.52-.93-12.16-3.54a.78.78,0,0,0-.71,0A19.31,19.31,0,0,1,7.47,7.19C6.3,7.32,5.13,7.36,3.86,7.45Z"/><circle class="cls-2" cx="17.37" cy="23.37" r="1.32"/><circle class="cls-2" cx="17.37" cy="34" r="1.32"/><circle class="cls-2" cx="27.58" cy="16.65" r="1.32"/><circle class="cls-2" cx="7.13" cy="16.65" r="1.32"/><circle class="cls-2" cx="17.37" cy="9.69" r="1.32"/><line class="cls-3" x1="17.37" y1="9.69" x2="17.37" y2="34.45"/><ellipse class="cls-3" cx="17.36" cy="16.65" rx="10.22" ry="6.95"/></svg>